# xmcd
#
# Track frame offsets: 
#        150
#        15653
#        29055
#        39426
#        50695
#        68372
#        85820
#        96715
#        118177
#        145275
#        166010
#        184223
#
# Disc length: 2625 seconds
#
# Revision: 0
# Processed by: cddbd v1.5.2PL0 Copyright (c) Steve Scherf et al.
# Submitted via: ExactAudioCopy v0.99pb5
#
DISCID=a40a3f0c
DTITLE=Vampire Weekend - Contra (Japan)
DYEAR=2010
DGENRE=Acoustic
TTITLE0=Horchata
TTITLE1=White Sky
TTITLE2=Holiday
TTITLE3=California English
TTITLE4=Taxi Cab
TTITLE5=Run
TTITLE6=Cousins
TTITLE7=Giving Up The Gun
TTITLE8=Diplomat's Son
TTITLE9=I Think Ur A Contra
TTITLE10=Ottoman (Bonus Track)
TTITLE11=Giant (Bonus Track)
EXTD=
EXTT0=
EXTT1=
EXTT2=
EXTT3=
EXTT4=
EXTT5=
EXTT6=
EXTT7=
EXTT8=
EXTT9=
EXTT10=
EXTT11=
PLAYORDER=
